<svg width="495" height="323" viewBox="0 0 495 323" fill="none" xmlns="http://www.w3.org/2000/svg">
<g clip-path="url(#clip0)">
<rect width="495" height="323" fill="url(#paint0_linear)"/>
<rect x="-83.8699" y="-73" width="205.718" height="273.146" transform="rotate(30.8654 -83.8699 -73)" fill="url(#paint1_linear)"/>
<rect x="-65.8699" y="10" width="205.718" height="273.146" transform="rotate(30.8654 -65.8699 10)" fill="url(#paint2_linear)"/>
<rect x="167.337" y="161" width="100.897" height="402.199" transform="rotate(30.8654 167.337 161)" fill="url(#paint3_linear)"/>
<rect x="465" y="-175" width="44.6179" height="283.221" transform="rotate(30.8654 465 -175)" fill="url(#paint4_linear)"/>
<rect x="425.352" y="10" width="54.7525" height="530.878" transform="rotate(30.8654 425.352 10)" fill="url(#paint5_linear)"/>
<rect x="196.045" y="-183" width="266.699" height="130.686" transform="rotate(30.8654 196.045 -183)" fill="url(#paint6_linear)"/>
<rect x="454.7" y="275" width="146.439" height="211.881" transform="rotate(30.8654 454.7 275)" fill="url(#paint7_linear)"/>
<rect x="546.883" y="-54" width="105.878" height="262.918" transform="rotate(30.8654 546.883 -54)" fill="url(#paint8_linear)"/>
<rect width="495" height="323" fill="url(#paint9_linear)" fill-opacity="0.2"/>
<rect x="263.444" y="246" width="410" height="275.708" transform="rotate(30.8654 263.444 246)" fill="url(#paint10_linear)"/>
<rect x="154.847" y="-45.7445" width="73.5728" height="138.097" transform="rotate(30.8654 154.847 -45.7445)" fill="url(#paint11_linear)"/>
<rect x="459.444" y="128" width="410" height="275.708" transform="rotate(30.8654 459.444 128)" fill="url(#paint12_linear)"/>
<rect x="222.072" width="146.135" height="53.624" transform="rotate(30.8654 222.072 0)" fill="url(#paint13_linear)"/>
<rect x="261.51" y="111" width="410" height="275.708" transform="rotate(30.8654 261.51 111)" fill="url(#paint14_linear)"/>
<rect x="302.846" y="-90" width="323.171" height="38.6848" transform="rotate(30.8654 302.846 -90)" fill="url(#paint15_linear)"/>
<rect x="17.4443" y="219" width="410" height="275.708" transform="rotate(30.8654 17.4443 219)" fill="url(#paint16_linear)"/>
<rect x="186.262" y="11.3518" width="193.205" height="363.068" transform="rotate(30.8654 186.262 11.3518)" fill="url(#paint17_linear)"/>
<rect x="390.677" y="-185" width="238.034" height="194.294" transform="rotate(30.8654 390.677 -185)" fill="url(#paint18_linear)"/>
<rect x="105.295" y="-228" width="262.915" height="587.294" transform="rotate(30.8654 105.295 -228)" fill="url(#paint19_linear)"/>
<rect width="344.311" height="80.946" transform="rotate(30.8654)" fill="url(#paint20_linear)"/>
<rect x="119.696" y="39" width="88.2126" height="75.4273" transform="rotate(30.8654 119.696 39)" fill="url(#paint21_linear)"/>
<rect x="56.5165" y="152" width="55.3178" height="53.6362" transform="rotate(30.8654 56.5165 152)" fill="url(#paint22_linear)"/>
<rect x="394.107" y="109" width="106.773" height="113.264" transform="rotate(30.8654 394.107 109)" fill="url(#paint23_linear)"/>
<rect width="495" height="323" fill="black" fill-opacity="0.4"/>
</g>
<defs>
<linearGradient id="paint0_linear" x1="371.5" y1="9.51882e-06" x2="124.5" y2="323" gradientUnits="userSpaceOnUse">
<stop stop-color="#287EFF"/>
<stop offset="1" stop-color="#4A90F9" stop-opacity="0.38"/>
</linearGradient>
<linearGradient id="paint1_linear" x1="18.9893" y1="-73" x2="18.9893" y2="200.146" gradientUnits="userSpaceOnUse">
<stop stop-color="#0033B6" stop-opacity="0.82"/>
<stop offset="1" stop-color="white" stop-opacity="0.42"/>
</linearGradient>
<linearGradient id="paint2_linear" x1="36.9893" y1="10" x2="36.9893" y2="283.146" gradientUnits="userSpaceOnUse">
<stop stop-color="#0033B6" stop-opacity="0.82"/>
<stop offset="1" stop-color="white" stop-opacity="0.42"/>
</linearGradient>
<linearGradient id="paint3_linear" x1="217.786" y1="161" x2="217.786" y2="563.199" gradientUnits="userSpaceOnUse">
<stop stop-color="#0033B6" stop-opacity="0.82"/>
<stop offset="1" stop-color="white" stop-opacity="0.42"/>
</linearGradient>
<linearGradient id="paint4_linear" x1="487.309" y1="-175" x2="487.309" y2="108.221" gradientUnits="userSpaceOnUse">
<stop stop-color="#0033B6" stop-opacity="0.82"/>
<stop offset="1" stop-color="white" stop-opacity="0.42"/>
</linearGradient>
<linearGradient id="paint5_linear" x1="452.729" y1="10" x2="452.729" y2="540.878" gradientUnits="userSpaceOnUse">
<stop stop-color="#0033B6" stop-opacity="0.82"/>
<stop offset="1" stop-color="white" stop-opacity="0.42"/>
</linearGradient>
<linearGradient id="paint6_linear" x1="329.394" y1="-183" x2="329.394" y2="-52.3142" gradientUnits="userSpaceOnUse">
<stop stop-color="#0033B6" stop-opacity="0.82"/>
<stop offset="1" stop-color="white" stop-opacity="0.42"/>
</linearGradient>
<linearGradient id="paint7_linear" x1="527.919" y1="275" x2="527.919" y2="486.881" gradientUnits="userSpaceOnUse">
<stop stop-color="#0033B6" stop-opacity="0.82"/>
<stop offset="1" stop-color="white" stop-opacity="0.42"/>
</linearGradient>
<linearGradient id="paint8_linear" x1="599.822" y1="-54" x2="599.822" y2="208.918" gradientUnits="userSpaceOnUse">
<stop stop-color="#0033B6" stop-opacity="0.82"/>
<stop offset="1" stop-color="white" stop-opacity="0.42"/>
</linearGradient>
<linearGradient id="paint9_linear" x1="495" y1="0" x2="1.41221e-06" y2="323" gradientUnits="userSpaceOnUse">
<stop stop-opacity="0.97"/>
<stop offset="1" stop-opacity="0.67"/>
</linearGradient>
<linearGradient id="paint10_linear" x1="468.444" y1="246" x2="468.444" y2="521.708" gradientUnits="userSpaceOnUse">
<stop stop-color="#0033B6" stop-opacity="0.82"/>
<stop offset="1" stop-color="white" stop-opacity="0.42"/>
</linearGradient>
<linearGradient id="paint11_linear" x1="191.633" y1="-45.7445" x2="191.633" y2="92.3527" gradientUnits="userSpaceOnUse">
<stop stop-color="#0033B6" stop-opacity="0.82"/>
<stop offset="1" stop-color="white" stop-opacity="0.42"/>
</linearGradient>
<linearGradient id="paint12_linear" x1="664.444" y1="128" x2="664.444" y2="403.708" gradientUnits="userSpaceOnUse">
<stop stop-color="#0033B6" stop-opacity="0.82"/>
<stop offset="1" stop-color="white" stop-opacity="0.42"/>
</linearGradient>
<linearGradient id="paint13_linear" x1="295.139" y1="0" x2="295.139" y2="53.624" gradientUnits="userSpaceOnUse">
<stop stop-color="#0033B6" stop-opacity="0.82"/>
<stop offset="1" stop-color="white" stop-opacity="0.42"/>
</linearGradient>
<linearGradient id="paint14_linear" x1="466.51" y1="111" x2="466.51" y2="386.708" gradientUnits="userSpaceOnUse">
<stop stop-color="#0033B6" stop-opacity="0.82"/>
<stop offset="1" stop-color="white" stop-opacity="0.42"/>
</linearGradient>
<linearGradient id="paint15_linear" x1="464.432" y1="-90" x2="464.432" y2="-51.3152" gradientUnits="userSpaceOnUse">
<stop stop-color="#0033B6" stop-opacity="0.82"/>
<stop offset="1" stop-color="white" stop-opacity="0.42"/>
</linearGradient>
<linearGradient id="paint16_linear" x1="222.444" y1="219" x2="222.444" y2="494.708" gradientUnits="userSpaceOnUse">
<stop stop-color="#0033B6" stop-opacity="0.82"/>
<stop offset="1" stop-color="white" stop-opacity="0.42"/>
</linearGradient>
<linearGradient id="paint17_linear" x1="282.865" y1="11.3518" x2="282.865" y2="374.419" gradientUnits="userSpaceOnUse">
<stop stop-color="#0033B6" stop-opacity="0.82"/>
<stop offset="1" stop-color="white" stop-opacity="0.42"/>
</linearGradient>
<linearGradient id="paint18_linear" x1="509.694" y1="-185" x2="509.694" y2="9.29446" gradientUnits="userSpaceOnUse">
<stop stop-color="#0033B6" stop-opacity="0.82"/>
<stop offset="1" stop-color="white" stop-opacity="0.42"/>
</linearGradient>
<linearGradient id="paint19_linear" x1="236.753" y1="-228" x2="236.753" y2="359.294" gradientUnits="userSpaceOnUse">
<stop stop-color="#0033B6" stop-opacity="0.82"/>
<stop offset="1" stop-color="white" stop-opacity="0.42"/>
</linearGradient>
<linearGradient id="paint20_linear" x1="172.156" y1="0" x2="172.156" y2="80.946" gradientUnits="userSpaceOnUse">
<stop stop-color="#0033B6" stop-opacity="0.82"/>
<stop offset="1" stop-color="white" stop-opacity="0.42"/>
</linearGradient>
<linearGradient id="paint21_linear" x1="163.802" y1="39" x2="163.802" y2="114.427" gradientUnits="userSpaceOnUse">
<stop stop-color="#0033B6" stop-opacity="0.82"/>
<stop offset="1" stop-color="white" stop-opacity="0.42"/>
</linearGradient>
<linearGradient id="paint22_linear" x1="84.1755" y1="152" x2="84.1755" y2="205.636" gradientUnits="userSpaceOnUse">
<stop stop-color="#0033B6" stop-opacity="0.82"/>
<stop offset="1" stop-color="white" stop-opacity="0.42"/>
</linearGradient>
<linearGradient id="paint23_linear" x1="447.494" y1="109" x2="447.494" y2="222.264" gradientUnits="userSpaceOnUse">
<stop stop-color="#0033B6" stop-opacity="0.82"/>
<stop offset="1" stop-color="white" stop-opacity="0.42"/>
</linearGradient>
<clipPath id="clip0">
<rect width="495" height="323" fill="white"/>
</clipPath>
</defs>
</svg>
