<svg width="30" height="30" viewBox="0 0 30 30" fill="none" xmlns="http://www.w3.org/2000/svg">
<path d="M9.93143 12.7061C9.90255 13.3425 9.87848 13.9435 9.85923 14.5092C9.8496 15.0749 9.83997 14.5351 9.83034 15.0907C9.82072 15.6361 9.81109 16.1917 9.80147 16.7574C9.80147 17.3129 9.80147 17.9089 9.80147 18.5453C9.80147 19.2928 9.80147 20.106 9.80147 20.9848C9.81109 21.8636 9.82072 22.8687 9.83034 24H7.43323L7.47655 22.106V20.5057L5.36824 21.7936C5.37787 22.4704 5.38749 23.1818 5.39712 24H3C3.00963 23.5555 3.01925 23.101 3.02888 22.6363C3.03851 22.1717 3.06258 17.8057 3.0722 17.2704L5.4982 15.6468C5.4597 16.4852 5.4982 18.3926 5.4982 18.3926L7.50543 17.0709C7.50543 16.6062 7.49099 14.8829 7.49099 14.5092L9.93143 12.7061Z" fill="white"/>
<path d="M11.8771 21.3101V17.2574C11.8771 16.6109 11.8723 16.0604 11.8627 15.6058C11.8627 15.1513 11.8627 14.7321 11.8627 14.3482L10.7941 15.2531C10.7844 15.0208 10.7748 13.8886 10.7652 13.6664C10.7556 13.4441 10.7941 12.9441 10.7941 12.7118C10.78 13.5148 10.7652 12.7061 10.7941 12.7118C10.7814 13.6512 10.7796 13.4088 10.7941 12.7118L15.2417 8.97329C15.2514 9.20562 15.255 11.3734 15.255 11.6057L14.1443 12.7061C14.125 13.3829 14.1539 15.6917 14.1443 16.3483C14.1443 17.0049 14.1443 17.7372 14.1443 18.5453V19.712L15.2417 18.6116C15.2514 18.9752 15.2562 20.4342 15.2562 20.7878C15.2562 21.1413 15.2562 21.4999 15.2562 21.8636C15.2562 22.2171 15.2562 21.4753 15.2562 21.839C15.2562 22.1925 15.2658 23.6465 15.2562 24H10.7941C10.8037 23.6465 10.7941 22.3885 10.7941 22.3885L11.8771 21.3101Z" fill="white"/>
<path d="M20.8149 11L19.5887 11.9519C19.5695 12.8509 19.5984 16.222 19.5887 17.1513C19.5791 18.0705 19.5743 16.8647 19.5743 17.9354C19.5743 18.6223 19.5743 19.1779 19.5743 19.6021C19.5743 20.0163 19.5743 20.3597 19.5743 20.6325C19.5743 20.8951 19.5743 21.1123 19.5743 21.284C19.5839 21.4456 19.5887 21.6173 19.5887 21.7992L17.1627 24C17.1724 23.5555 17.182 23.0959 17.1916 22.6212C17.2012 22.1363 17.206 21.6161 17.206 21.0605C17.2157 20.4949 17.2205 19.8888 17.2205 19.2423C17.2301 18.5857 17.2349 17.8635 17.2349 17.0756C17.2349 16.4998 17.2349 15.9998 17.2349 15.5755C17.2349 15.1513 17.2301 13.6619 17.2205 13.3084L15.5598 14.4088V11.6057L21.1188 7.55019L20.8149 11Z" fill="white"/>
<path d="M22.139 18.361C21.7772 18.361 21.4661 18.0822 21.2056 17.5247C20.9451 16.9672 20.8149 16.2849 20.8149 15.4779V13.101C20.8149 12.8222 21.4878 11.4017 21.4878 11.4017C21.618 11.4017 27.5876 7 27.5876 7V10.3013L23.4849 13.101L23.4198 15.698C23.4198 16.2849 23.55 16.5783 23.8105 16.5783C23.8684 16.5783 24.317 16.3876 25.1563 16.0061C25.9957 15.6246 26.5022 15.4339 26.6759 15.4339C27.0232 15.4339 27.3271 15.72 27.5876 16.2922C27.8625 16.8498 28 17.5687 28 18.4491V20.936C28 21.2148 27.1679 21.699 25.5037 22.3885C23.8539 23.0635 22.906 23.4009 22.66 23.4009C22.5587 23.4009 22.4574 23.3129 22.3561 23.1368C22.2693 22.9461 22.139 22.66 21.9654 22.2785C21.8062 21.897 21.647 21.5742 21.4878 21.3101C21.2997 20.958 21.0609 20.7819 20.7715 20.7819V20.3418C21.003 20.2391 21.3141 20.085 21.7049 19.8796C22.6166 19.3661 23.1086 19.1093 23.181 19.1093C23.398 19.1093 23.6658 19.5421 23.9841 20.4078C24.317 21.2735 24.5847 21.7063 24.7873 21.7063C24.932 21.7063 25.0695 21.6476 25.1998 21.5302C25.33 21.4128 25.3951 21.2514 25.3951 21.046V18.295C25.3951 17.6347 25.2142 17.3046 24.8524 17.3046C24.7367 17.3046 24.2808 17.4807 23.4849 17.8328C22.6889 18.185 22.2403 18.361 22.139 18.361Z" fill="white"/>
</svg>
